<?xml version="1.0" encoding="UTF-8"?>
<svg id="Layer_2" data-name="Layer 2" xmlns="http://www.w3.org/2000/svg" viewBox="0 0 208.73 153.58">
  <defs>
    <style>
      .cls-1 {
        fill: #1f2a44;
      }
    </style>
  </defs>
  <g id="Layer_1-2" data-name="Layer 1">
    <path class="cls-1" d="M188.4,136.48c1.04.49,1.85,1.02,2.52,1.65,1.01.94,1.73,2.08,2.51,3.57-.19-.07-.43-.16-.73-.27-1.25-.48-3.4-1.41-5.65-3.3h-.02c-4.58-3.87-6.48-6.98-11.35-14.8-1.38-2.22-3.13-2.6-4.42-2.85-26.43-5.04-24.42-21.96-24.42-21.96,0,0,9.22,7.53,26.4,5.34,2.28-.29,4.37.75,6.07,1.08,1.46.28,5.01.46,7.92-3.36-2.03.59-4.12.52-5.21.31-1.9-.36-3.67-.6-5.34-.13-13.47,3.71-24.95-6.2-25.99-7.12-18.07-15.96-36.02-11-43.21-11.44-8.71-.53-19.7-7.46-32.11-2.43-22.57,9.15-30.74-1.66-29.78-7.91.42-2.71,2.11-4.53,4.18-5.53,1.59-.76,3.31-.86,4.98-.71,7.13.65,10.35,8.43,11.93,9.89.87.81,2.31,1.3,3.66,1.28,6.12-.12,3.86-4.16,3.43-5.56-.22-.71-1.83-5.78-1.83-5.78-2.53-2.55-5.2-3.14-9.15-3.12,3.57-2.58,7.02-1.95,8.08-1-.1-5.55-1.72-8.13-1.72-8.13,0,0,2.58-3.95,4.53-5.39,2.05-1.51,4.27-1.67,4.34-4.77.14-5.86-8.19-8.65-6.58-15.1,1.51-6.07,7.17-5.14,9.62-9.46,2.29-4.03.34-7.35.24-7.52.02.15.3,2.04-1.16,5.24-1.44,3.15-5.68,3.38-8.34,5.24-5.79,4.05-5.39,11.31-1.75,16.63.76,1.11,2.83,3.03,2.51,4.36-.22.95-2.13,1.45-2.96,1.97-1.65,1.03-3.33,2.23-4.51,3.81l-.24-3.86c-.53-3.71-2.49-6.73-5.64-8.77-3.32-2.15-7.8-2.98-9.5-7.06-2.13-5.12,4.41-8.92.94-15.76-2.8-5.51-9.05-5.97-11.36-10.04-.71-1.25-.8-2.34-1-3.7-.69,2.24-.57,4.81.75,6.79,2.13,3.18,6.65,4.37,8.38,7.92,1.94,3.98-1.79,7.07-2.43,10.88-.95,5.66,2.68,10.56,7.37,13.29,2.38,1.39,6.38,2.31,6.21,5.85-.04.76-.84,4.27-2.11,3.34-.59-.44-1.04-7.12-10.48-11.23-2.14-.93-8.58-.96-8.58-.96,0,0,.2,1.37.74,3.29,2.18-.18,6.53.49,8.66,4.44-1.43-.76-6.93-2.97-8.15-2.79.6,1.76,1.47,3.73,2.67,5.46,2.01,2.88,3.35,3.67,3.35,3.67,0,0-2.77,1.16-7.97,4.16-5.55,3.21-10.3,7.82-13.03,13.69-4.64,10.01.05,23.74.05,23.74,0,0-13.41-1.29-21.32,5.1C-.04,98.62-.24,101.92.17,104.72c.41,2.79,1.52,5.43,3.13,7.75,3.61,5.2,12.8,16.43,25.99,18.29,1.78.25,15.82.99,15.82.99,0,0-7.04-16.8-21.7-13.23,2.93,1,4.22,2.42,5.79,4.9-1.45-.41-6.38-1.56-10.62-6.72-.97-1.17-1.85-2.42-2.7-3.68-.26-.38-2.46-3.98-2.73-3.98,12.72-4,22.15,11.83,40.73,11.52-3.63-3.54-6.12-5.02-8.03-10.54,23.99,26.93,60.95,11.94,71.59,5.44,4.22-2.58,9.72-2.92,12.48,1.19.01.02.02.04.04.07,8.19,12.15,16.17,13.79,22.59,13.63,16.44-.4,25.15,15.05,38.21,19.72,4.25,1.52,17.97,3.51,17.97,3.51,0,0-4.6-17.53-20.33-17.1Z"/>
  </g>
</svg>