<?xml version="1.0" encoding="UTF-8"?>
<svg id="Layer_2" data-name="Layer 2" xmlns="http://www.w3.org/2000/svg" viewBox="0 0 444.67 137.45">
  <defs>
    <style>
      .cls-1 {
        fill: #35c1d5;
      }

      .cls-2 {
        fill: #1f2a44;
      }
    </style>
  </defs>
  <g id="Layer_1-2" data-name="Layer 1">
    <g>
      <path class="cls-2" d="M168.44,122.02c.93.44,1.65.91,2.25,1.47.9.84,1.55,1.86,2.24,3.19-.17-.06-.39-.14-.65-.24-1.12-.43-3.04-1.26-5.05-2.95h-.02c-4.09-3.46-5.79-6.24-10.15-13.23-1.23-1.99-2.8-2.33-3.96-2.55-23.63-4.5-21.83-19.63-21.83-19.63,0,0,8.24,6.74,23.6,4.77,2.04-.26,3.91.67,5.43.96,1.3.25,4.48.41,7.09-3-1.81.53-3.68.46-4.66.28-1.7-.32-3.28-.53-4.78-.12-12.04,3.31-22.31-5.54-23.24-6.37-16.15-14.27-32.2-9.84-38.63-10.23-7.79-.47-17.61-6.67-28.71-2.17-20.18,8.18-27.48-1.48-26.62-7.07.37-2.42,1.88-4.05,3.74-4.94,1.42-.68,2.96-.77,4.46-.63,6.38.58,9.25,7.54,10.67,8.84.78.72,2.06,1.16,3.27,1.14,5.47-.11,3.45-3.72,3.07-4.97-.2-.63-1.64-5.17-1.64-5.17-2.26-2.28-4.65-2.8-8.18-2.79,3.19-2.31,6.28-1.75,7.22-.89-.09-4.96-1.54-7.27-1.54-7.27,0,0,2.3-3.53,4.05-4.82,1.84-1.35,3.81-1.49,3.88-4.27.12-5.23-7.32-7.74-5.89-13.5,1.35-5.42,6.41-4.59,8.6-8.46,2.05-3.6.31-6.57.21-6.72.02.13.27,1.83-1.04,4.68-1.29,2.82-5.08,3.02-7.45,4.68-5.18,3.62-4.82,10.11-1.56,14.87.68.99,2.53,2.71,2.24,3.9-.2.85-1.9,1.3-2.64,1.76-1.48.92-2.98,2-4.03,3.41l-.21-3.45c-.47-3.32-2.22-6.02-5.05-7.84-2.97-1.92-6.97-2.67-8.5-6.31-1.91-4.58,3.95-7.97.84-14.09-2.51-4.93-8.09-5.34-10.15-8.98-.64-1.12-.71-2.09-.9-3.31-.62,2-.51,4.3.67,6.07,1.91,2.84,5.95,3.91,7.49,7.08,1.73,3.56-1.6,6.32-2.17,9.73-.85,5.06,2.4,9.44,6.59,11.88,2.13,1.24,5.7,2.07,5.56,5.23-.03.68-.75,3.82-1.88,2.99-.53-.39-.93-6.37-9.37-10.04-1.92-.83-7.68-.86-7.68-.86,0,0,.18,1.23.66,2.94,1.95-.16,5.84.44,7.75,3.97-1.28-.68-6.2-2.65-7.28-2.5.54,1.57,1.31,3.34,2.39,4.88,1.8,2.58,2.99,3.28,2.99,3.28,0,0-2.48,1.04-7.13,3.72-4.96,2.87-9.21,6.99-11.65,12.24-4.15,8.95.04,21.23.04,21.23,0,0-11.99-1.15-19.06,4.56-2.19,1.77-2.37,4.72-2.01,7.22.36,2.5,1.36,4.86,2.8,6.93,3.23,4.65,11.44,14.69,23.24,16.35,1.6.22,14.15.89,14.15.89,0,0-6.29-15.02-19.4-11.83,2.62.9,3.77,2.16,5.18,4.38-1.3-.37-5.7-1.4-9.5-6.01-.86-1.05-1.65-2.16-2.42-3.29-.24-.34-2.2-3.56-2.44-3.56,11.37-3.58,19.8,10.58,36.42,10.3-3.25-3.16-5.48-4.48-7.18-9.42,21.45,24.08,54.49,10.68,64,4.86,3.77-2.31,8.69-2.61,11.15,1.07.01.02.02.04.04.06,7.32,10.86,14.46,12.33,20.2,12.19,14.7-.35,22.49,13.45,34.16,17.63,3.8,1.36,16.07,3.14,16.07,3.14,0,0-4.11-15.68-18.18-15.29Z"/>
      <g>
        <polygon class="cls-1" points="206.95 118.61 205.25 118.61 205.25 137.42 216.62 137.42 216.62 135.72 206.95 135.72 206.95 118.61"/>
        <rect class="cls-1" x="223.58" y="118.53" width="1.67" height="18.91"/>
        <polygon class="cls-1" points="238.91 134.4 234.14 118.56 232.27 118.56 238 137.37 239.82 137.37 245.55 118.56 243.68 118.56 238.91 134.4"/>
        <rect class="cls-1" x="252.46" y="118.53" width="1.67" height="18.91"/>
        <polygon class="cls-1" points="272.37 134.01 263.1 118.58 261.52 118.58 261.52 137.42 263.19 137.42 263.19 121.86 272.49 137.42 273.99 137.42 273.99 118.58 272.37 118.58 272.37 134.01"/>
        <path class="cls-1" d="M287.55,130.16h4.79v.03c0,2.06-.58,5.51-4.49,5.51-4.26,0-4.89-4.01-4.89-6.4v-2.47c0-2.26.41-4.03,1.17-4.99.79-1.01,1.97-1.49,3.73-1.49,2.34,0,3.06.58,3.55,1.13l.32.36,1.34-1.1-.36-.39c-.76-.84-1.93-1.69-4.86-1.69-1.11,0-2.05.16-2.89.49-.84.34-1.54.84-2.09,1.5-1.07,1.32-1.67,3.51-1.67,6.18v2.47c0,1.41.14,2.69.4,3.62.27.99.68,1.83,1.22,2.48.57.69,1.29,1.19,2.12,1.5.82.33,1.8.49,2.91.49,2.04,0,3.61-.65,4.69-1.94.98-1.18,1.57-3.3,1.57-5.67v-1.32h-6.56v1.7Z"/>
      </g>
      <g>
        <path class="cls-2" d="M205.35,101.19v-35.74c0-1.49-.13-2.61-.39-3.36-.26-.75-.79-1.26-1.58-1.54-.8-.28-1.97-.42-3.51-.42-.15,0-.23-.15-.23-.46s.08-.46.23-.46c1.34,0,2.83.04,4.48.12,1.65.08,3.4.12,5.25.12,1.96,0,3.76-.04,5.4-.12,1.65-.08,3.11-.12,4.4-.12.15,0,.23.15.23.46s-.08.46-.23.46c-1.54,0-2.7.15-3.47.46-.77.31-1.3.85-1.58,1.62-.28.77-.42,1.9-.42,3.4v35.59c0,1.49.13,2.62.39,3.4.26.77.77,1.29,1.54,1.54.77.26,1.96.39,3.55.39.2,0,.31.15.31.46s-.1.46-.31.46c-1.34,0-2.82-.03-4.44-.08-1.62-.05-3.41-.08-5.37-.08-1.85,0-3.63.03-5.33.08-1.7.05-3.22.08-4.55.08-.1,0-.15-.15-.15-.46s.05-.46.15-.46c1.59,0,2.79-.13,3.59-.39.8-.26,1.34-.77,1.62-1.54.28-.77.42-1.9.42-3.4ZM208.52,87.53l19.92-20.38c1.9-1.9,2.61-3.55,2.12-4.94-.49-1.39-2.02-2.08-4.59-2.08-.15,0-.23-.15-.23-.46s.08-.46.23-.46c1.39,0,2.8.04,4.25.12,1.44.08,3.35.12,5.71.12s4.43-.04,5.87-.12c1.44-.08,2.83-.12,4.17-.12.15,0,.23.15.23.46s-.08.46-.23.46c-2.37,0-4.97.68-7.8,2.05-2.83,1.36-5.4,3.18-7.72,5.44l-19.84,20.15-2.08-.23ZM225.74,96.25l-10.58-14.28,6.18-5.94,11.81,15.9c2.01,2.83,3.71,5.16,5.1,6.99,1.39,1.83,2.56,3.27,3.51,4.32.95,1.06,1.79,1.81,2.51,2.28.72.46,1.43.75,2.12.85.69.1,1.45.15,2.28.15.15,0,.23.15.23.46s-.08.46-.23.46h-8.65c-1.29,0-2.29.04-3.01.12-.72.08-1.35.01-1.89-.19-.54-.2-1.16-.67-1.85-1.39-.69-.72-1.62-1.85-2.78-3.4-1.16-1.54-2.74-3.65-4.75-6.33Z"/>
        <path class="cls-2" d="M303.63,69.07c0-2.73-.63-4.9-1.89-6.52-1.26-1.62-3.02-2.43-5.29-2.43-.1,0-.15-.15-.15-.46s.05-.46.15-.46c1.29,0,2.61.04,3.98.12,1.36.08,2.84.12,4.44.12,1.39,0,2.75-.04,4.09-.12,1.34-.08,2.57-.12,3.71-.12.1,0,.15.15.15.46s-.05.46-.15.46c-2.06,0-3.64.81-4.75,2.43-1.11,1.62-1.66,3.8-1.66,6.52v21.46c0,3.65-.8,6.83-2.39,9.53-1.6,2.7-3.83,4.79-6.72,6.25-2.88,1.47-6.25,2.2-10.11,2.2s-7.12-.72-10.07-2.16c-2.96-1.44-5.28-3.51-6.95-6.21-1.67-2.7-2.51-5.96-2.51-9.77v-24.94c0-1.49-.13-2.61-.39-3.36-.26-.75-.79-1.26-1.58-1.54-.8-.28-1.97-.42-3.51-.42-.15,0-.23-.15-.23-.46s.08-.46.23-.46c1.34,0,2.83.04,4.48.12,1.65.08,3.4.12,5.25.12,1.96,0,3.76-.04,5.4-.12,1.65-.08,3.11-.12,4.4-.12.15,0,.23.15.23.46s-.08.46-.23.46c-1.54,0-2.7.15-3.47.46-.77.31-1.3.85-1.58,1.62-.28.77-.42,1.9-.42,3.4v22.08c0,6.33,1.26,10.91,3.78,13.74,2.52,2.83,5.89,4.25,10.11,4.25s7.62-1.3,10.04-3.9c2.42-2.6,3.63-6.32,3.63-11.16v-21.54Z"/>
        <path class="cls-2" d="M350.57,107.75c-1.65,0-3.71-.08-6.18-.23-2.47-.15-4.74-.23-6.79-.23-1.85,0-3.63.03-5.33.08-1.7.05-3.22.08-4.55.08-.1,0-.15-.15-.15-.46s.05-.46.15-.46c1.59,0,2.79-.13,3.59-.39.8-.26,1.34-.77,1.62-1.54.28-.77.42-1.9.42-3.4v-35.74c0-1.49-.13-2.61-.39-3.36-.26-.75-.79-1.26-1.58-1.54-.8-.28-1.97-.42-3.51-.42-.15,0-.23-.15-.23-.46s.08-.46.23-.46c1.34,0,2.83.04,4.48.12,1.65.08,3.42.12,5.33.12s3.89-.06,6.1-.19c2.21-.13,4.12-.19,5.71-.19,5.35,0,10.01,1.03,13.97,3.09,3.96,2.06,7.05,4.86,9.26,8.41,2.21,3.55,3.32,7.54,3.32,11.97,0,3.86-.67,7.35-2.01,10.46-1.34,3.11-3.19,5.76-5.56,7.95-2.37,2.19-5.08,3.87-8.14,5.06-3.06,1.18-6.32,1.78-9.77,1.78ZM349.79,105.98c3.24,0,6.12-.84,8.65-2.51,2.52-1.67,4.5-4.13,5.94-7.37,1.44-3.24,2.16-7.2,2.16-11.89,0-4.37-.67-8.34-2.01-11.89-1.34-3.55-3.22-6.37-5.64-8.45-2.42-2.08-5.3-3.13-8.65-3.13-2.99,0-5.12.28-6.41.85-1.29.57-1.93,1.9-1.93,4.01v34.74c0,1.9.5,3.32,1.51,4.25,1,.93,3.13,1.39,6.37,1.39Z"/>
        <path class="cls-2" d="M435.49,69.07c0-2.73-.63-4.9-1.89-6.52-1.26-1.62-3.02-2.43-5.29-2.43-.1,0-.15-.15-.15-.46s.05-.46.15-.46c1.29,0,2.61.04,3.98.12,1.36.08,2.84.12,4.44.12,1.39,0,2.75-.04,4.09-.12,1.34-.08,2.57-.12,3.71-.12.1,0,.15.15.15.46s-.05.46-.15.46c-2.06,0-3.64.81-4.75,2.43-1.11,1.62-1.66,3.8-1.66,6.52v21.46c0,3.65-.8,6.83-2.39,9.53-1.6,2.7-3.83,4.79-6.72,6.25-2.88,1.47-6.25,2.2-10.11,2.2s-7.12-.72-10.07-2.16c-2.96-1.44-5.28-3.51-6.95-6.21-1.67-2.7-2.51-5.96-2.51-9.77v-24.94c0-1.49-.13-2.61-.39-3.36-.26-.75-.79-1.26-1.58-1.54-.8-.28-1.97-.42-3.51-.42-.15,0-.23-.15-.23-.46s.08-.46.23-.46c1.34,0,2.83.04,4.48.12,1.65.08,3.4.12,5.25.12,1.96,0,3.76-.04,5.4-.12,1.65-.08,3.11-.12,4.4-.12.15,0,.23.15.23.46s-.08.46-.23.46c-1.54,0-2.7.15-3.47.46-.77.31-1.3.85-1.58,1.62-.28.77-.42,1.9-.42,3.4v22.08c0,6.33,1.26,10.91,3.78,13.74,2.52,2.83,5.89,4.25,10.11,4.25s7.62-1.3,10.04-3.9c2.42-2.6,3.63-6.32,3.63-11.16v-21.54Z"/>
      </g>
    </g>
  </g>
</svg>